<svg width="13" height="148" viewBox="0 0 13 148" fill="none" xmlns="http://www.w3.org/2000/svg">
<path d="M6.10335 0.210769C6.1471 -0.0702564 6.55178 -0.0702564 6.59553 0.210769C6.79416 1.47693 8.40066 1.90767 9.20589 0.909988C9.38421 0.688771 9.73414 0.890326 9.63264 1.15608C9.17156 2.35254 10.3473 3.52914 11.5438 3.06721C11.8086 2.96502 12.0111 3.31568 11.7899 3.49397C10.7921 4.29921 11.2229 5.90561 12.4891 6.10335C12.7701 6.1471 12.77 6.55171 12.4891 6.59553C11.7474 6.71184 11.2952 7.31169 11.2459 7.95003C11.2952 8.58847 11.7474 9.18774 12.4891 9.30354C12.7701 9.34729 12.7701 9.75193 12.4891 9.79573C11.7477 9.91199 11.2955 10.5112 11.2459 11.1492C11.2949 11.788 11.7471 12.3879 12.4891 12.5037C12.7701 12.5475 12.7701 12.9521 12.4891 12.9959C11.7476 13.1122 11.2954 13.7113 11.2459 14.3494C11.295 14.9881 11.7472 15.5881 12.4891 15.7039C12.7701 15.7477 12.7701 16.1524 12.4891 16.1961C11.7475 16.3124 11.2953 16.9114 11.2459 17.5496C11.2951 18.1882 11.7473 18.7883 12.4891 18.9041C12.77 18.948 12.7701 19.3526 12.4891 19.3963C11.7475 19.5126 11.2952 20.1116 11.2459 20.7498C11.2951 21.3883 11.7474 21.9875 12.4891 22.1033C12.7701 22.1471 12.77 22.5517 12.4891 22.5955C11.7474 22.7118 11.2952 23.3117 11.2459 23.95C11.2952 24.5885 11.7474 25.1877 12.4891 25.3035C12.7701 25.3473 12.7701 25.7519 12.4891 25.7957C11.7477 25.912 11.2955 26.5112 11.2459 27.1492C11.2949 27.788 11.7472 28.3879 12.4891 28.5037C12.7701 28.5475 12.7701 28.9522 12.4891 28.9959C11.7476 29.1122 11.2954 29.7113 11.2459 30.3494C11.295 30.9881 11.7472 31.5881 12.4891 31.7039C12.7701 31.7477 12.7701 32.1524 12.4891 32.1961C11.7475 32.3124 11.2953 32.9114 11.2459 33.5496C11.2951 34.1882 11.7473 34.7883 12.4891 34.9041C12.77 34.948 12.7701 35.3526 12.4891 35.3963C11.7475 35.5126 11.2952 36.1116 11.2459 36.7498C11.2951 37.3883 11.7474 37.9875 12.4891 38.1033C12.7701 38.1471 12.77 38.5517 12.4891 38.5955C11.7474 38.7118 11.2952 39.3117 11.2459 39.95C11.2952 40.5885 11.7474 41.1877 12.4891 41.3035C12.7701 41.3473 12.7701 41.7519 12.4891 41.7957C11.7477 41.912 11.2955 42.5112 11.2459 43.1492C11.2949 43.788 11.7472 44.3879 12.4891 44.5037C12.7701 44.5475 12.7701 44.9522 12.4891 44.9959C11.7476 45.1122 11.2954 45.7113 11.2459 46.3494C11.295 46.9881 11.7472 47.5881 12.4891 47.7039C12.7701 47.7477 12.7701 48.1524 12.4891 48.1961C11.7475 48.3124 11.2953 48.9114 11.2459 49.5496C11.2951 50.1882 11.7473 50.7883 12.4891 50.9041C12.77 50.948 12.7701 51.3526 12.4891 51.3963C11.7475 51.5126 11.2952 52.1116 11.2459 52.7498C11.2951 53.3883 11.7474 53.9875 12.4891 54.1033C12.7701 54.1471 12.77 54.5517 12.4891 54.5955C11.7474 54.7118 11.2952 55.3117 11.2459 55.95C11.2952 56.5884 11.7475 57.1877 12.4891 57.3035C12.7701 57.3473 12.7701 57.7519 12.4891 57.7957C11.7477 57.912 11.2954 58.5112 11.2459 59.1492C11.2949 59.788 11.7472 60.3879 12.4891 60.5037C12.7701 60.5475 12.7701 60.9522 12.4891 60.9959C11.7476 61.1122 11.2954 61.7113 11.2459 62.3494C11.295 62.9881 11.7472 63.5881 12.4891 63.7039C12.7701 63.7477 12.7701 64.1524 12.4891 64.1961C11.7475 64.3124 11.2953 64.9114 11.2459 65.5496C11.2951 66.1882 11.7473 66.7883 12.4891 66.9041C12.77 66.948 12.7701 67.3526 12.4891 67.3963C11.7475 67.5126 11.2952 68.1116 11.2459 68.7498C11.2952 69.3883 11.7474 69.9875 12.4891 70.1033C12.7701 70.1471 12.77 70.5517 12.4891 70.5955C11.7474 70.7118 11.2951 71.3117 11.2459 71.95C11.2952 72.5884 11.7475 73.1877 12.4891 73.3035C12.7701 73.3473 12.7701 73.7519 12.4891 73.7957C11.7477 73.912 11.2954 74.5112 11.2459 75.1492C11.2949 75.788 11.7472 76.3879 12.4891 76.5037C12.7701 76.5475 12.7701 76.9522 12.4891 76.9959C11.7476 77.1122 11.2954 77.7113 11.2459 78.3494C11.295 78.9881 11.7472 79.5881 12.4891 79.7039C12.7701 79.7477 12.7701 80.1524 12.4891 80.1961C11.7475 80.3124 11.2953 80.9114 11.2459 81.5496C11.2951 82.1882 11.7473 82.7883 12.4891 82.9041C12.77 82.948 12.7701 83.3526 12.4891 83.3963C11.7475 83.5126 11.2952 84.1116 11.2459 84.7498C11.2952 85.3883 11.7474 85.9875 12.4891 86.1033C12.7701 86.1471 12.77 86.5517 12.4891 86.5955C11.7474 86.7118 11.2951 87.3117 11.2459 87.95C11.2952 88.5884 11.7475 89.1877 12.4891 89.3035C12.7701 89.3473 12.7701 89.7519 12.4891 89.7957C11.7477 89.912 11.2954 90.5112 11.2459 91.1492C11.2949 91.788 11.7472 92.3879 12.4891 92.5037C12.7701 92.5475 12.7701 92.9522 12.4891 92.9959C11.7476 93.1122 11.2954 93.7113 11.2459 94.3494C11.295 94.9881 11.7473 95.5881 12.4891 95.7039C12.77 95.7477 12.7701 96.1524 12.4891 96.1961C11.7475 96.3124 11.2953 96.9114 11.2459 97.5496C11.2951 98.1882 11.7473 98.7883 12.4891 98.9041C12.77 98.948 12.7701 99.3526 12.4891 99.3963C11.7475 99.5126 11.2952 100.112 11.2459 100.75C11.2952 101.388 11.7474 101.988 12.4891 102.103C12.7701 102.147 12.77 102.552 12.4891 102.596C11.7474 102.712 11.2951 103.312 11.2459 103.95C11.2952 104.588 11.7475 105.188 12.4891 105.304C12.7701 105.347 12.7701 105.752 12.4891 105.796C11.7477 105.912 11.2954 106.511 11.2459 107.149C11.2949 107.788 11.7472 108.388 12.4891 108.504C12.7701 108.548 12.7701 108.952 12.4891 108.996C11.7476 109.112 11.2954 109.711 11.2459 110.349C11.295 110.988 11.7473 111.588 12.4891 111.704C12.77 111.748 12.7701 112.152 12.4891 112.196C11.7475 112.312 11.2953 112.911 11.2459 113.55C11.2951 114.188 11.7473 114.788 12.4891 114.904C12.77 114.948 12.7701 115.353 12.4891 115.396C11.7475 115.513 11.2952 116.112 11.2459 116.75C11.2952 117.388 11.7474 117.988 12.4891 118.103C12.7701 118.147 12.77 118.552 12.4891 118.596C11.7474 118.712 11.2951 119.312 11.2459 119.95C11.2953 120.588 11.7475 121.188 12.4891 121.304C12.7701 121.347 12.7701 121.752 12.4891 121.796C11.7477 121.912 11.2954 122.511 11.2459 123.149C11.2949 123.788 11.7472 124.388 12.4891 124.504C12.7701 124.548 12.7701 124.952 12.4891 124.996C11.7476 125.112 11.2954 125.711 11.2459 126.349C11.295 126.988 11.7473 127.588 12.4891 127.704C12.77 127.748 12.7701 128.152 12.4891 128.196C11.7475 128.312 11.2953 128.911 11.2459 129.55C11.2951 130.188 11.7473 130.788 12.4891 130.904C12.77 130.948 12.7701 131.353 12.4891 131.396C11.7475 131.513 11.2952 132.112 11.2459 132.75C11.2952 133.388 11.7474 133.988 12.4891 134.103C12.7701 134.147 12.77 134.552 12.4891 134.596C11.7473 134.712 11.2951 135.312 11.2459 135.95C11.2953 136.588 11.7475 137.188 12.4891 137.304C12.7701 137.347 12.7701 137.752 12.4891 137.796C11.7477 137.912 11.2954 138.511 11.2459 139.149C11.2949 139.788 11.7472 140.388 12.4891 140.504C12.7701 140.548 12.7701 140.952 12.4891 140.996C11.2228 141.194 10.792 142.801 11.7899 143.606C12.0107 143.785 11.8094 144.134 11.5438 144.032C10.3473 143.571 9.17072 144.747 9.63264 145.943C9.73529 146.208 9.38426 146.411 9.20589 146.189C8.40067 145.192 6.79351 145.623 6.59553 146.889C6.55178 147.17 6.1471 147.17 6.10335 146.889C5.90446 145.623 4.29919 145.192 3.49397 146.189C3.3156 146.411 2.96541 146.209 3.06721 145.943C3.52823 144.747 2.35252 143.57 1.15608 144.032C0.891124 144.135 0.688881 143.785 0.909988 143.606C1.90783 142.801 1.47693 141.194 0.210769 140.996C-0.0702564 140.952 -0.0702564 140.547 0.210769 140.504C0.952469 140.387 1.40382 139.788 1.45296 139.149C1.40354 138.511 0.952193 137.912 0.210769 137.796C-0.0702564 137.752 -0.0702564 137.347 0.210769 137.304C0.952523 137.187 1.40389 136.587 1.45296 135.949C1.40347 135.311 0.952139 134.711 0.210769 134.596C-0.0702564 134.552 -0.0702564 134.147 0.210769 134.103C0.952577 133.987 1.40397 133.387 1.45296 132.749C1.40337 132.111 0.951979 131.512 0.210769 131.396C-0.0702564 131.353 -0.0702564 130.948 0.210769 130.904C0.95236 130.788 1.40367 130.188 1.45296 129.55C1.40369 128.911 0.952301 128.312 0.210769 128.196C-0.0702564 128.152 -0.0702564 127.748 0.210769 127.704C0.952414 127.588 1.40375 126.988 1.45296 126.349C1.40361 125.711 0.952247 125.112 0.210769 124.996C-0.0702564 124.952 -0.0702564 124.547 0.210769 124.504C0.952469 124.387 1.40382 123.788 1.45296 123.149C1.40354 122.511 0.952193 121.912 0.210769 121.796C-0.0702564 121.752 -0.0702564 121.347 0.210769 121.304C0.952523 121.187 1.40389 120.587 1.45296 119.949C1.40344 119.311 0.952121 118.711 0.210769 118.596C-0.0702564 118.552 -0.0702564 118.147 0.210769 118.103C0.952595 117.987 1.40399 117.387 1.45296 116.749C1.40337 116.111 0.951979 115.512 0.210769 115.396C-0.0702564 115.353 -0.0702564 114.948 0.210769 114.904C0.95236 114.788 1.40367 114.188 1.45296 113.55C1.40369 112.911 0.952301 112.312 0.210769 112.196C-0.0702564 112.152 -0.0702564 111.748 0.210769 111.704C0.952414 111.588 1.40375 110.988 1.45296 110.349C1.40361 109.711 0.952247 109.112 0.210769 108.996C-0.0702564 108.952 -0.0702564 108.547 0.210769 108.504C0.952469 108.387 1.40382 107.788 1.45296 107.149C1.40352 106.511 0.952175 105.912 0.210769 105.796C-0.0702564 105.752 -0.0702564 105.347 0.210769 105.304C0.952541 105.187 1.40392 104.588 1.45296 103.949C1.40344 103.311 0.952121 102.711 0.210769 102.596C-0.0702564 102.552 -0.0702564 102.147 0.210769 102.103C0.952595 101.987 1.40399 101.387 1.45296 100.749C1.40337 100.111 0.951979 99.5122 0.210769 99.3963C-0.0702564 99.3526 -0.0702564 98.9479 0.210769 98.9041C0.95236 98.7878 1.40367 98.1879 1.45296 97.5496C1.40369 96.9112 0.952301 96.312 0.210769 96.1961C-0.0702564 96.1524 -0.0702564 95.7477 0.210769 95.7039C0.952414 95.5876 1.40375 94.9878 1.45296 94.3494C1.40359 93.7111 0.952229 93.1118 0.210769 92.9959C-0.0702564 92.9522 -0.0702564 92.5475 0.210769 92.5037C0.952487 92.3874 1.40385 91.7876 1.45296 91.1492C1.40352 90.511 0.952175 89.9116 0.210769 89.7957C-0.0702564 89.752 -0.0702564 89.3473 0.210769 89.3035C0.952541 89.1871 1.40392 88.5875 1.45296 87.9491C1.40344 87.3109 0.952121 86.7113 0.210769 86.5955C-0.0702564 86.5518 -0.0702564 86.1471 0.210769 86.1033C0.952595 85.9869 1.40399 85.3874 1.45296 84.7489C1.40337 84.1108 0.951979 83.5122 0.210769 83.3963C-0.0702564 83.3526 -0.0702564 82.9479 0.210769 82.9041C0.95236 82.7878 1.40367 82.1879 1.45296 81.5496C1.40366 80.9113 0.952283 80.312 0.210769 80.1961C-0.0702564 80.1524 -0.0702564 79.7477 0.210769 79.7039C0.952432 79.5876 1.40377 78.9878 1.45296 78.3494C1.40359 77.7111 0.952229 77.1118 0.210769 76.9959C-0.0702564 76.9522 -0.0702564 76.5475 0.210769 76.5037C0.952487 76.3874 1.40385 75.7876 1.45296 75.1492C1.40352 74.511 0.952175 73.9116 0.210769 73.7957C-0.0702564 73.752 -0.0702564 73.3473 0.210769 73.3035C0.952541 73.1871 1.40392 72.5875 1.45296 71.9491C1.40344 71.3109 0.952121 70.7113 0.210769 70.5955C-0.0702564 70.5518 -0.0702564 70.1471 0.210769 70.1033C0.952595 69.9869 1.40399 69.3874 1.45296 68.7489C1.40335 68.1108 0.951961 67.5122 0.210769 67.3963C-0.0702564 67.3526 -0.0702564 66.9479 0.210769 66.9041C0.952378 66.7878 1.4037 66.1879 1.45296 65.5496C1.40366 64.9113 0.952283 64.312 0.210769 64.1961C-0.0702564 64.1524 -0.0702564 63.7477 0.210769 63.7039C0.952432 63.5876 1.40377 62.9878 1.45296 62.3494C1.40359 61.7111 0.952229 61.1118 0.210769 60.9959C-0.0702564 60.9522 -0.0702564 60.5475 0.210769 60.5037C0.952487 60.3874 1.40385 59.7876 1.45296 59.1492C1.40352 58.511 0.952175 57.9116 0.210769 57.7957C-0.0702564 57.752 -0.0702564 57.3473 0.210769 57.3035C0.952541 57.1871 1.40392 56.5875 1.45296 55.9491C1.40342 55.3109 0.952103 54.7113 0.210769 54.5955C-0.0702564 54.5518 -0.0702564 54.1471 0.210769 54.1033C0.952236 53.987 1.40363 53.388 1.45296 52.7498C1.40373 52.1114 0.952338 51.5122 0.210769 51.3963C-0.0702564 51.3526 -0.0702564 50.9479 0.210769 50.9041C0.952378 50.7878 1.4037 50.1879 1.45296 49.5496C1.40366 48.9113 0.952283 48.312 0.210769 48.1961C-0.0702564 48.1524 -0.0702564 47.7477 0.210769 47.7039C0.952432 47.5876 1.40377 46.9878 1.45296 46.3494C1.40359 45.7111 0.952229 45.1118 0.210769 44.9959C-0.0702564 44.9522 -0.0702564 44.5475 0.210769 44.5037C0.952487 44.3874 1.40385 43.7876 1.45296 43.1492C1.40349 42.511 0.952157 41.9116 0.210769 41.7957C-0.0702564 41.752 -0.0702564 41.3473 0.210769 41.3035C0.952559 41.1871 1.40394 40.5875 1.45296 39.9491C1.40342 39.3109 0.952103 38.7113 0.210769 38.5955C-0.0702564 38.5518 -0.0702564 38.1471 0.210769 38.1033C0.952236 37.987 1.40363 37.388 1.45296 36.7498C1.40373 36.1114 0.952338 35.5122 0.210769 35.3963C-0.0702564 35.3526 -0.0702564 34.9479 0.210769 34.9041C0.952378 34.7878 1.4037 34.1879 1.45296 33.5496C1.40366 32.9113 0.952283 32.312 0.210769 32.1961C-0.0702564 32.1524 -0.0702564 31.7477 0.210769 31.7039C0.952432 31.5876 1.40377 30.9878 1.45296 30.3494C1.40359 29.7111 0.952229 29.1118 0.210769 28.9959C-0.0702564 28.9522 -0.0702564 28.5475 0.210769 28.5037C0.952487 28.3874 1.40385 27.7876 1.45296 27.1492C1.40349 26.511 0.952157 25.9116 0.210769 25.7957C-0.0702564 25.752 -0.0702564 25.3473 0.210769 25.3035C0.952559 25.1871 1.40394 24.5875 1.45296 23.9491C1.40342 23.3109 0.952103 22.7113 0.210769 22.5955C-0.0702564 22.5518 -0.0702564 22.1471 0.210769 22.1033C0.952236 21.987 1.40363 21.388 1.45296 20.7498C1.40373 20.1114 0.952338 19.5122 0.210769 19.3963C-0.0702564 19.3526 -0.0702564 18.9479 0.210769 18.9041C0.952378 18.7878 1.4037 18.1879 1.45296 17.5496C1.40366 16.9113 0.952283 16.312 0.210769 16.1961C-0.0702564 16.1524 -0.0702564 15.7477 0.210769 15.7039C0.952432 15.5876 1.40377 14.9878 1.45296 14.3494C1.40356 13.7112 0.952211 13.1118 0.210769 12.9959C-0.0702564 12.9522 -0.0702564 12.5475 0.210769 12.5037C0.952505 12.3873 1.40387 11.7877 1.45296 11.1492C1.40349 10.511 0.952157 9.91156 0.210769 9.79573C-0.0702564 9.75198 -0.0702564 9.34729 0.210769 9.30354C0.952559 9.18713 1.40394 8.58753 1.45296 7.94905C1.40342 7.31088 0.952103 6.71134 0.210769 6.59553C-0.0702564 6.55178 -0.0702564 6.1471 0.210769 6.10335C1.4768 5.90464 1.90752 4.2992 0.909988 3.49397C0.688753 3.31564 0.890294 2.96564 1.15608 3.06721C2.35254 3.5283 3.52914 2.35254 3.06721 1.15608C2.9648 0.891134 3.31564 0.688753 3.49397 0.909988C4.2992 1.90752 5.90548 1.47679 6.10335 0.210769Z" fill="#F3F1ED"/>
</svg>
