<svg width="13" height="13" viewBox="0 0 13 13" fill="none" xmlns="http://www.w3.org/2000/svg">
<path d="M6.59611 0.210769C6.79468 1.47707 8.4009 1.90786 9.20611 0.909968C9.38449 0.688681 9.73451 0.890615 9.6327 1.1565C9.17161 2.35296 10.347 3.52923 11.5435 3.0673C11.8085 2.96465 12.0113 3.31551 11.79 3.49389C10.7921 4.2991 11.2229 5.90616 12.4892 6.10389C12.7703 6.14764 12.7703 6.55235 12.4892 6.59611C11.2229 6.79468 10.7921 8.4009 11.79 9.20611C12.0113 9.38449 11.8094 9.73451 11.5435 9.6327C10.347 9.17161 9.17077 10.347 9.6327 11.5435C9.73535 11.8085 9.38449 12.0113 9.20611 11.79C8.4009 10.7921 6.79384 11.2229 6.59611 12.4892C6.55236 12.7703 6.14765 12.7703 6.10389 12.4892C5.90532 11.2229 4.2991 10.7921 3.49389 11.79C3.31551 12.0113 2.96549 11.8094 3.0673 11.5435C3.52839 10.347 2.35296 9.17077 1.1565 9.6327C0.891457 9.73535 0.688681 9.38449 0.909967 9.20611C1.90786 8.4009 1.47707 6.79383 0.210769 6.59611C-0.0702564 6.55235 -0.0702564 6.14764 0.210769 6.10389C1.47707 5.90532 1.90786 4.2991 0.909967 3.49389C0.688681 3.31551 0.890615 2.96549 1.1565 3.0673C2.35296 3.52839 3.52923 2.35296 3.0673 1.1565C2.96465 0.891457 3.31551 0.688681 3.49389 0.909968C4.2991 1.90786 5.90617 1.47707 6.10389 0.210769C6.14765 -0.0702564 6.55236 -0.0702564 6.59611 0.210769Z" fill="#00A8B1"/>
</svg>
